:FULLY-SPECIFIED
:FORCE-ALL-JOINTS-BE-3DOF
:DEGREES
714
root -12.3211 13.7313 -38.0594 518.288 -58.1307 205.987
lfemur -62.9789 26.9662 2.50089
ltibia 73.8547 0 0
lfoot -7.95597 -8.74555 0
ltoes -1.50944 0 0
rfemur 11.479 -8.06217 9.66276
rtibia 40.2547 0 0
rfoot -25.279 -27.0595 0
rtoes -24.7242 0 0
lowerback 11.9198 1.35718 9.47695
upperback -1.69767 3.44436 5.99035
thorax -8.37635 1.2388 0.481615
lowerneck -5.50405 5.97926 1.21999
upperneck 4.73621 7.8508 1.01864
head 2.32952 3.96623 0.357834
lclavicle 1.55613e-14 2.98016e-15 0
lhumerus 68.151 23.293 113.758
lradius 0.0410962 0 0
lwrist -91.0287 0 0
lhand -39.1664 38.6574 0
lfingers 7.12502 0 0
lthumb -12.16 68.7511 0
rclavicle 1.55613e-14 2.98016e-15 0
rhumerus -92.3771 18.4837 -100.471
rradius 116.403 0 0
rwrist -72.1065 0 0
rhand -15.5529 -49.2311 0
rfingers 7.12502 0 0
rthumb 10.6514 -79.1718 0
715
root -12.3597 13.7196 -38.0539 518.536 -58.0468 205.787
lfemur -63.0321 27.0764 2.57362
ltibia 73.9094 0 0
lfoot -8.00766 -8.78794 0
ltoes -1.45588 0 0
rfemur 11.6415 -8.00948 9.57629
rtibia 40.1005 0 0
rfoot -25.2675 -27.0596 0
rtoes -24.9109 0 0
lowerback 11.8798 1.35119 9.50909
upperback -1.69948 3.43692 6.0049
thorax -8.35469 1.23414 0.482137
lowerneck -5.49888 6.0277 1.27857
upperneck 4.74301 7.91482 0.969811
head 2.32995 3.998 0.333136
lclavicle 1.6088e-14 2.6522e-15 0
lhumerus 68.376 23.5396 113.926
lradius -0.401215 0 0
lwrist -91.5504 0 0
lhand -39.3546 38.7083 0
lfingers 7.12502 0 0
lthumb -12.3415 68.8112 0
rclavicle 1.6088e-14 2.6522e-15 0
rhumerus -93.0374 18.459 -100.69
rradius 116.39 0 0
rwrist -72.1357 0 0
rhand -15.4811 -49.2301 0
rfingers 7.12502 0 0
rthumb 10.721 -79.1704 0
716
root -12.3951 13.7089 -38.0495 518.755 -57.9769 205.618
lfemur -63.0927 27.1775 2.63237
ltibia 73.9709 0 0
lfoot -8.06097 -8.82599 0
ltoes -1.41178 0 0
rfemur 11.7925 -7.96641 9.49958
rtibia 39.9508 0 0
rfoot -25.2549 -27.062 0
rtoes -25.1034 0 0
lowerback 11.8411 1.34547 9.53877
upperback -1.70143 3.42958 6.01834
thorax -8.33398 1.22964 0.482753
lowerneck -5.48953 6.07094 1.33447
upperneck 4.74677 7.97203 0.922189
head 2.32903 4.02632 0.309068
lclavicle 1.66258e-14 2.26197e-15 0
lhumerus 68.5759 23.7528 114.065
lradius -0.790688 0 0
lwrist -92.0132 0 0
lhand -39.5172 38.748 0
lfingers 7.12502 0 0
lthumb -12.4982 68.8592 0
rclavicle 1.66258e-14 2.26197e-15 0
rhumerus -93.6224 18.437 -100.886
rradius 116.37 0 0
rwrist -72.1378 0 0
rhand -15.3774 -49.188 0
rfingers 7.12502 0 0
rthumb 10.8213 -79.1242 0
717
root -12.4272 13.6991 -38.0463 518.944 -57.9217 205.48
lfemur -63.1608 27.2688 2.67639
ltibia 74.0393 0 0
lfoot -8.11579 -8.85938 0
ltoes -1.37776 0 0
rfemur 11.9311 -7.9334 9.43316
rtibia 39.8061 0 0
rfoot -25.2415 -27.0668 0
rtoes -25.3019 0 0
lowerback 11.8038 1.34006 9.56575
upperback -1.70349 3.42233 6.03059
thorax -8.3143 1.22532 0.483489
lowerneck -5.47578 6.10871 1.38749
upperneck 4.74731 8.02204 0.87587
head 2.32667 4.05099 0.285686
lclavicle 1.71742e-14 1.80699e-15 0
lhumerus 68.7491 23.9306 114.174
lradius -1.12421 0 0
lwrist -92.4132 0 0
lhand -39.6526 38.7759 0
lfingers 7.12502 0 0
lthumb -12.6287 68.8943 0
rclavicle 1.71742e-14 1.80699e-15 0
rhumerus -94.1275 18.4177 -101.06
rradius 116.343 0 0
rwrist -72.1113 0 0
rhand -15.24 -49.103 0
rfingers 7.12502 0 0
rthumb 10.9539 -79.0312 0
718
root -12.4558 13.6903 -38.0443 519.101 -57.882 205.376
lfemur -63.2367 27.3496 2.70489
ltibia 74.1146 0 0
lfoot -8.17205 -8.88776 0
ltoes -1.35445 0 0
rfemur 12.0562 -7.91088 9.37757
rtibia 39.6674 0 0
rfoot -25.2271 -27.074 0
rtoes -25.5063 0 0
lowerback 11.7681 1.33498 9.58978
upperback -1.70567 3.41521 6.04156
thorax -8.29572 1.22119 0.484371
lowerneck -5.45746 6.14072 1.43744
upperneck 4.74444 8.06449 0.830954
head 2.32281 4.07185 0.263044
lclavicle 1.77324e-14 1.28478e-15 0
lhumerus 68.8941 24.0711 114.251
lradius -1.39868 0 0
lwrist -92.7467 0 0
lhand -39.7593 38.7913 0
lfingers 7.12502 0 0
lthumb -12.7315 68.9157 0
rclavicle 1.77324e-14 1.28478e-15 0
rhumerus -94.5478 18.4015 -101.209
rradius 116.307 0 0
rwrist -72.0545 0 0
rhand -15.0675 -48.9731 0
rfingers 7.12502 0 0
rthumb 11.1202 -78.8893 0
719
root -12.4805 13.6825 -38.0436 519.225 -57.8587 205.307
lfemur -63.3206 27.4192 2.71712
ltibia 74.1971 0 0
lfoot -8.22965 -8.91081 0
ltoes -1.34247 0 0
rfemur 12.167 -7.89926 9.33336
rtibia 39.5352 0 0
rfoot -25.2117 -27.0834 0
rtoes -25.7165 0 0
lowerback 11.734 1.33028 9.61063
upperback -1.70796 3.40823 6.05115
thorax -8.27834 1.21728 0.485426
lowerneck -5.43436 6.1667 1.48412
upperneck 4.738 8.09901 0.787539
head 2.31737 4.08869 0.241195
lclavicle 1.82998e-14 6.92832e-16 0
lhumerus 69.0094 24.1724 114.293
lradius -1.61098 0 0
lwrist -93.01 0 0
lhand -39.8357 38.7936 0
lfingers 7.12502 0 0
lthumb -12.8052 68.9229 0
rclavicle 1.82998e-14 6.92832e-16 0
rhumerus -94.8788 18.3883 -101.333
rradius 116.263 0 0
rwrist -71.9661 0 0
rhand -14.8583 -48.7964 0
rfingers 7.12502 0 0
rthumb 11.3217 -78.6963 0
720
root -12.5013 13.6759 -38.0443 519.313 -57.8524 205.275
lfemur -63.4128 27.4769 2.71231
ltibia 74.2869 0 0
lfoot -8.28851 -8.9282 0
ltoes -1.34245 0 0
rfemur 12.2625 -7.89899 9.30107
rtibia 39.4103 0 0
rfoot -25.1954 -27.0953 0
rtoes -25.9327 0 0
lowerback 11.7018 1.32599 9.62803
upperback -1.71034 3.4014 6.05927
thorax -8.26222 1.2136 0.48668
lowerneck -5.40629 6.18637 1.52732
upperneck 4.72779 8.12523 0.745724
head 2.31028 4.10134 0.220196
lclavicle 1.88756e-14 2.86748e-17 0
lhumerus 69.0935 24.2325 114.301
lradius -1.758 0 0
lwrist -93.1994 0 0
lhand -39.8805 38.7821 0
lfingers 7.12502 0 0
lthumb -12.8483 68.9152 0
rclavicle 1.88756e-14 2.86748e-17 0
rhumerus -95.1157 18.3784 -101.429
rradius 116.21 0 0
rwrist -71.8444 0 0
rhand -14.6109 -48.571 0
rfingers 7.12502 0 0
rthumb 11.5598 -78.4501 0
721
root -12.5179 13.6705 -38.0463 519.365 -57.864 205.281
lfemur -63.5135 27.522 2.68969
ltibia 74.3841 0 0
lfoot -8.34855 -8.93958 0
ltoes -1.35501 0 0
rfemur 12.3417 -7.91049 9.28123
rtibia 39.2934 0 0
rfoot -25.178 -27.1095 0
rtoes -26.1547 0 0
lowerback 11.6716 1.32212 9.64176
upperback -1.7128 3.39473 6.06582
thorax -8.24744 1.21018 0.488159
lowerneck -5.37304 6.19943 1.56686
upperneck 4.71365 8.14278 0.705607
head 2.30148 4.1096 0.200101
lclavicle 1.94591e-14 -7.10183e-16 0
lhumerus 69.1449 24.2495 114.271
lradius -1.83663 0 0
lwrist -93.311 0 0
lhand -39.892 38.7561 0
lfingers 7.12502 0 0
lthumb -12.8593 68.8917 0
rclavicle 1.94591e-14 -7.10183e-16 0
rhumerus -95.254 18.3718 -101.496
rradius 116.147 0 0
rwrist -71.6879 0 0
rhand -14.3237 -48.2949 0
rfingers 7.12502 0 0
rthumb 11.8361 -78.1486 0
722
root -12.5301 13.6664 -38.0498 519.378 -57.8944 205.327
lfemur -63.623 27.5539 2.6485
ltibia 74.489 0 0
lfoot -8.40966 -8.94462 0
ltoes -1.38077 0 0
rfemur 12.4036 -7.93419 9.27439
rtibia 39.1853 0 0
rfoot -25.1595 -27.1262 0
rtoes -26.3827 0 0
lowerback 11.6434 1.31873 9.65157
upperback -1.71535 3.38826 6.07071
thorax -8.23409 1.20704 0.48989
lowerneck -5.33442 6.20561 1.60253
upperneck 4.69539 8.15129 0.667287
head 2.29088 4.11329 0.180965
lclavicle 2.00498e-14 -1.52623e-15 0
lhumerus 69.1622 24.2214 114.202
lradius -1.84377 0 0
lwrist -93.3411 0 0
lhand -39.8686 38.7151 0
lfingers 7.12502 0 0
lthumb -12.8368 68.8518 0
rclavicle 2.00498e-14 -1.52623e-15 0
rhumerus -95.2888 18.3688 -101.533
rradius 116.074 0 0
rwrist -71.4951 0 0
rhand -13.9952 -47.9662 0
rfingers 7.12502 0 0
rthumb 12.1521 -77.7897 0
723
root -12.5376 13.6635 -38.0549 519.351 -57.9442 205.415
lfemur -63.7414 27.5718 2.58798
ltibia 74.6016 0 0
lfoot -8.47177 -8.943 0
ltoes -1.42037 0 0
rfemur 12.4474 -7.97053 9.28109
rtibia 39.0866 0 0
rfoot -25.1401 -27.1452 0
rtoes -26.6165 0 0
lowerback 11.6176 1.31583 9.65722
upperback -1.71797 3.38199 6.07385
thorax -8.22223 1.20418 0.491897
lowerneck -5.29023 6.20462 1.63414
upperneck 4.67284 8.15039 0.630862
head 2.27842 4.11222 0.162842
lclavicle 2.06468e-14 -2.42195e-15 0
lhumerus 69.1438 24.1464 114.092
lradius -1.77629 0 0
lwrist -93.2861 0 0
lhand -39.809 38.6583 0
lfingers 7.12502 0 0
lthumb -12.7793 68.7948 0
rclavicle 2.06468e-14 -2.42195e-15 0
rhumerus -95.2155 18.3694 -101.537
rradius 115.99 0 0
rwrist -71.2645 0 0
rhand -13.6237 -47.5831 0
rfingers 7.12502 0 0
rthumb 12.5092 -77.3713 0
724
root -12.5403 13.662 -38.0615 519.283 -58.0143 205.545
lfemur -63.8691 27.575 2.50734
ltibia 74.7222 0 0
lfoot -8.53479 -8.93437 0
ltoes -1.47441 0 0
rfemur 12.4719 -8.01992 9.30186
rtibia 38.9981 0 0
rfoot -25.1195 -27.1666 0
rtoes -26.8562 0 0
lowerback 11.5941 1.31346 9.65845
upperback -1.72064 3.37593 6.07515
thorax -8.21196 1.20164 0.494209
lowerneck -5.24028 6.1962 1.66148
upperneck 4.64582 8.13971 0.59643
head 2.26402 4.10621 0.145786
lclavicle 2.12496e-14 -3.39984e-15 0
lhumerus 69.0882 24.0223 113.94
lradius -1.6311 0 0
lwrist -93.142 0 0
lhand -39.7116 38.5852 0
lfingers 7.12502 0 0
lthumb -12.6853 68.7199 0
rclavicle 2.12496e-14 -3.39984e-15 0
rhumerus -95.0294 18.3739 -101.509
rradius 115.895 0 0
rwrist -70.9946 0 0
rhand -13.2079 -47.1436 0
rfingers 7.12502 0 0
rthumb 12.909 -76.8912 0
725
root -12.538 13.662 -38.0698 519.171 -58.1054 205.721
lfemur -64.0062 27.563 2.40583
ltibia 74.8507 0 0
lfoot -8.59863 -8.91841 0
ltoes -1.54353 0 0
rfemur 12.4763 -8.08281 9.33725
rtibia 38.9205 0 0
rfoot -25.0979 -27.1905 0
rtoes -27.1018 0 0
lowerback 11.5732 1.31166 9.65504
upperback -1.72337 3.37011 6.07451
thorax -8.20335 1.19942 0.49685
lowerneck -5.18436 6.18004 1.68437
upperneck 4.61414 8.11888 0.564091
head 2.24761 4.09506 0.129853
lclavicle 2.18574e-14 -4.46237e-15 0
lhumerus 68.994 23.8474 113.744
lradius -1.40508 0 0
lwrist -92.9053 0 0
lhand -39.5748 38.495 0
lfingers 7.12502 0 0
lthumb -12.5534 68.6265 0
rclavicle 2.18574e-14 -4.46237e-15 0
rhumerus -94.7259 18.3823 -101.445
rradius 115.788 0 0
rwrist -70.6837 0 0
rhand -12.7461 -46.6457 0
rfingers 7.12502 0 0
rthumb 13.3528 -76.3474 0
726
root -12.5304 13.6634 -38.0798 519.015 -58.2184 205.942
lfemur -64.1531 27.5349 2.28269
ltibia 74.9876 0 0
lfoot -8.66321 -8.89477 0
ltoes -1.62835 0 0
rfemur 12.4596 -8.15961 9.38781
rtibia 38.8544 0 0
rfoot -25.0751 -27.2168 0
rtoes -27.3533 0 0
lowerback 11.5549 1.31045 9.64672
upperback -1.72615 3.36455 6.07184
thorax -8.19647 1.19756 0.499847
lowerneck -5.12228 6.15588 1.70261
upperneck 4.57763 8.08754 0.533943
head 2.22912 4.0786 0.115098
lclavicle 2.24696e-14 -5.61204e-15 0
lhumerus 68.8596 23.6197 113.503
lradius -1.09511 0 0
lwrist -92.5721 0 0
lhand -39.3971 38.3871 0
lfingers 7.12502 0 0
lthumb -12.3821 68.5139 0
rclavicle 2.24696e-14 -5.61204e-15 0
rhumerus -94.3002 18.3948 -101.345
rradius 115.668 0 0
rwrist -70.3304 0 0
rhand -12.2368 -46.0876 0
rfingers 7.12502 0 0
rthumb 13.8423 -75.7378 0
